<svg width="20" height="10" viewBox="0 0 20 10" fill="none" xmlns="http://www.w3.org/2000/svg">
<path d="M2.604 0.84H3.612V7.764H5.064V9H0.624V7.764H2.256V2.244L0.624 2.856V1.596L2.604 0.84ZM6.17203 2.868C6.17203 2.276 6.43203 1.764 6.95203 1.332C7.47203 0.9 8.23203 0.684 9.23203 0.684C10.168 0.684 10.912 0.908 11.464 1.356C12.024 1.804 12.312 2.336 12.328 2.952C12.344 3.752 11.984 4.412 11.248 4.932C12.16 5.388 12.616 6.032 12.616 6.864C12.616 7.504 12.336 8.048 11.776 8.496C11.216 8.936 10.384 9.156 9.28003 9.156C8.18403 9.156 7.34403 8.924 6.76003 8.46C6.17603 7.988 5.88403 7.416 5.88403 6.744C5.88403 6.344 6.00003 5.952 6.23203 5.568C6.46403 5.184 6.79203 4.864 7.21603 4.608C6.52003 4.16 6.17203 3.58 6.17203 2.868ZM9.37603 5.472C8.84803 5.312 8.45603 5.184 8.20003 5.088C7.88803 5.28 7.64803 5.512 7.48003 5.784C7.32003 6.048 7.24003 6.316 7.24003 6.588C7.24803 7.02 7.42803 7.364 7.78003 7.62C8.14003 7.868 8.66003 7.992 9.34003 7.992C9.89203 7.992 10.344 7.892 10.696 7.692C11.056 7.492 11.236 7.232 11.236 6.912C11.236 6.744 11.204 6.596 11.14 6.468C11.076 6.332 10.992 6.22 10.888 6.132C10.792 6.044 10.664 5.96 10.504 5.88C10.344 5.8 10.188 5.736 10.036 5.688C9.88403 5.632 9.70403 5.572 9.49603 5.508C9.48003 5.5 9.46403 5.496 9.44803 5.496C9.44003 5.496 9.42803 5.492 9.41203 5.484C9.40403 5.476 9.39203 5.472 9.37603 5.472ZM10.984 3.12C10.984 2.752 10.824 2.448 10.504 2.208C10.184 1.968 9.74003 1.848 9.17203 1.848C8.66003 1.848 8.25203 1.944 7.94803 2.136C7.65203 2.328 7.50403 2.568 7.50403 2.856C7.50403 3.128 7.59603 3.36 7.78003 3.552C7.97203 3.744 8.15603 3.876 8.33203 3.948C8.50803 4.02 8.78803 4.116 9.17203 4.236C9.23603 4.26 9.28403 4.276 9.31603 4.284C9.65203 4.372 9.94403 4.456 10.192 4.536C10.72 4.128 10.984 3.656 10.984 3.12ZM16.9639 4.224H19.1239V5.376H16.9639V7.536H15.8119V5.376H13.6519V4.224H15.8119V2.064H16.9639V4.224Z" fill="white"/>
</svg>
