<svg width="139" height="82" viewBox="0 0 139 82" fill="none" xmlns="http://www.w3.org/2000/svg">
<path d="M1.52305 12.9554C1.15423 11.9317 0.969371 10.8518 0.968464 9.71581C0.967557 8.57981 1.15069 7.49966 1.51788 6.47537C1.90106 5.45106 2.44432 4.53063 3.14767 3.71406C3.85101 2.8815 4.77848 2.22476 5.9301 1.74384C7.0817 1.24692 8.36951 0.997893 9.79351 0.996756C11.2175 0.995619 12.4977 1.2426 13.6341 1.73769C14.7865 2.21677 15.715 2.87203 16.4197 3.70347C17.1403 4.51889 17.6851 5.43846 18.0539 6.46216C18.4387 7.48586 18.6316 8.5657 18.6325 9.7017C18.6334 10.8377 18.4422 11.9179 18.059 12.9422C17.6919 13.9665 17.1486 14.8949 16.4293 15.7275C15.7259 16.544 14.7984 17.2008 13.6468 17.6977C12.5112 18.1786 11.2314 18.4196 9.80742 18.4208C8.38342 18.4219 7.09523 18.1829 5.94284 17.7038C4.79045 17.2088 3.86193 16.5535 3.15727 15.7381C2.45261 14.9066 1.90787 13.9791 1.52305 12.9554ZM14.2679 14.0732C15.323 12.8883 15.8498 11.4319 15.8485 9.70392C15.8471 7.97593 15.3179 6.52035 14.261 5.33719C13.22 4.15402 11.7316 3.56321 9.79556 3.56476C7.87556 3.56629 6.38803 4.15948 5.33298 5.34432C4.27792 6.52916 3.75108 7.98558 3.75246 9.71358C3.75384 11.4416 4.28301 12.8972 5.33995 14.0803C6.3969 15.2635 7.88537 15.8543 9.80537 15.8528C11.7414 15.8512 13.2289 15.258 14.2679 14.0732ZM20.4924 12.4362C20.4908 10.4362 21.1216 8.90771 22.3847 7.85071C23.6479 6.7937 25.1355 6.26451 26.8475 6.26314C28.2235 6.26204 29.4077 6.5571 30.4002 7.1483L30.4021 9.5003C29.5055 8.86102 28.4413 8.54187 27.2093 8.54285C26.0733 8.54376 25.1055 8.86453 24.3061 9.50517C23.5066 10.1298 23.1073 11.0741 23.1083 12.3381C23.1093 13.5701 23.5021 14.5138 24.2866 15.1692C25.0871 15.8086 26.0473 16.1278 27.1673 16.1269C28.3833 16.1259 29.5031 15.829 30.5266 15.2362L30.5285 17.6122C29.425 18.1411 28.1532 18.4061 26.7132 18.4073C25.0332 18.4086 23.5768 17.8978 22.3439 16.8747C21.1111 15.8357 20.4939 14.3562 20.4924 12.4362ZM33.8574 3.08954L36.4009 2.46351L36.4042 6.56751L40.5802 6.56418L40.582 8.82017L36.406 8.82351L36.4102 14.1035C36.4108 14.8395 36.5792 15.3594 36.9155 15.6631C37.2677 15.9668 37.8278 16.1184 38.5958 16.1178C39.3798 16.1171 40.1557 15.9645 40.9235 15.6599L40.9252 17.8679C39.9975 18.2046 38.9656 18.3735 37.8296 18.3744C36.6456 18.3753 35.6854 18.0641 34.9489 17.4407C34.2284 16.8173 33.8676 15.8655 33.8666 14.5855L33.862 8.82554L31.798 8.82719L31.7962 6.57119L33.8602 6.56954L33.8574 3.08954ZM44.1167 16.7854C42.8999 15.7143 42.2907 14.2268 42.2892 12.3228C42.2877 10.4188 42.8945 8.93033 44.1096 7.85736C45.3408 6.78437 46.8123 6.2472 48.5243 6.24583C50.2523 6.24445 51.7248 6.77928 52.9416 7.8503C54.1585 8.92133 54.7677 10.4088 54.7692 12.3128C54.7707 14.2168 54.1639 15.7053 52.9487 16.7783C51.7336 17.8513 50.262 18.3884 48.534 18.3898C46.822 18.3912 45.3496 17.8564 44.1167 16.7854ZM51.1473 15.0277C51.8188 14.3392 52.1541 13.4349 52.1532 12.3149C52.1523 11.1949 51.8156 10.2992 51.143 9.62774C50.4705 8.94028 49.5982 8.59698 48.5262 8.59783C47.4382 8.5987 46.5585 8.9434 45.887 9.63194C45.2156 10.3045 44.8803 11.2007 44.8812 12.3207C44.8821 13.4407 45.2188 14.3445 45.8913 15.0319C46.5639 15.7034 47.4442 16.0387 48.5322 16.0378C49.6042 16.037 50.4759 15.7003 51.1473 15.0277ZM57.2504 1.27086L59.8184 1.26881L59.8238 8.03681C60.8948 6.83595 62.2783 6.23485 63.9743 6.23349C65.6703 6.23214 67.0468 6.82304 68.1037 8.0062C69.1607 9.17335 69.6898 10.6049 69.6912 12.3009C69.6925 13.9969 69.1657 15.4374 68.1106 16.6222C67.0556 17.791 65.68 18.3761 63.984 18.3775C62.176 18.3789 60.6955 17.6681 59.5423 16.245L59.5438 18.069L57.2638 18.0709L57.2504 1.27086ZM66.0694 15.0638C66.7408 14.3433 67.0761 13.423 67.0752 12.303C67.0743 11.183 66.7376 10.2713 66.065 9.56783C65.3924 8.84836 64.5361 8.48905 63.4961 8.48988C62.6481 8.49055 61.8963 8.72315 61.2407 9.18768C60.6011 9.65219 60.1295 10.2206 59.826 10.8928L59.8283 13.7008C60.1328 14.3886 60.6053 14.9642 61.2457 15.4277C61.902 15.8912 62.6542 16.1226 63.5022 16.1219C64.5422 16.121 65.3979 15.7684 66.0694 15.0638ZM71.4689 12.2995C71.4681 11.3075 71.6434 10.4114 71.9947 9.61109C72.3461 8.79481 72.8096 8.15444 73.3852 7.68998C73.9608 7.20952 74.5845 6.84902 75.2563 6.60849C75.9281 6.35195 76.608 6.22341 77.296 6.22286C78.176 6.22215 78.9681 6.35752 79.6723 6.62896C80.3926 6.90038 80.9688 7.26792 81.4012 7.73158C81.8336 8.19523 82.186 8.73095 82.4585 9.33874C82.731 9.94652 82.8755 10.5864 82.892 11.2584C82.9086 11.9144 82.8531 12.5784 82.7256 13.2505L74.0616 13.2574C74.1904 14.2333 74.671 14.969 75.5034 15.4643C76.3358 15.9436 77.328 16.1828 78.48 16.1819C79.792 16.1809 81.0077 15.9079 82.1273 15.363L82.1291 17.571C81.0255 18.0999 79.6497 18.365 78.0017 18.3663C76.1297 18.3678 74.5693 17.841 73.3204 16.786C72.0876 15.731 71.4704 14.2355 71.4689 12.2995ZM80.4201 11.3324C80.5156 10.6763 80.315 10.0204 79.8185 9.36484C79.338 8.69323 78.5377 8.35787 77.4177 8.35876C76.5057 8.35949 75.7219 8.62411 75.0664 9.15264C74.4268 9.68115 74.0834 10.4094 74.0361 11.3375L80.4201 11.3324ZM87.6142 8.42262C88.0616 7.70226 88.7252 7.14173 89.6049 6.74103C90.4845 6.34033 91.4364 6.18757 92.4605 6.28275L92.4625 8.80275C91.4384 8.65956 90.5105 8.79631 89.6788 9.21297C88.8472 9.62963 88.2557 10.2461 87.9043 11.0624L87.9099 18.0464L85.3419 18.0484L85.3327 6.52844L87.6127 6.52662L87.6142 8.42262ZM1.61117 33.1393C3.22629 32.034 5.03385 31.4806 7.03384 31.479C8.74584 31.4776 10.1302 31.8765 11.1868 32.6757C12.2434 33.4588 12.7723 34.5864 12.7735 36.0584C12.7745 37.2904 12.3673 38.3467 11.552 39.2274C10.7527 40.092 9.6574 40.9409 8.26607 41.774C8.15412 41.8381 7.94621 41.9582 7.64235 42.1345C7.35449 42.3107 7.1466 42.4389 7.01866 42.519C6.90671 42.5831 6.7228 42.6952 6.46693 42.8554C6.21106 43.0156 6.01915 43.1358 5.89122 43.2159C5.77928 43.296 5.61938 43.4161 5.4115 43.5763C5.21962 43.7204 5.07572 43.8485 4.97981 43.9606C4.88389 44.0567 4.77199 44.1848 4.64412 44.3449C4.51623 44.489 4.42034 44.6251 4.35644 44.7531C4.30855 44.8812 4.26066 45.0252 4.21279 45.1852C4.16492 45.3453 4.14104 45.5053 4.14117 45.6653L12.9011 45.6343L12.9031 48.1063L1.07113 48.1157L1.07013 46.8677C1.06942 45.9717 1.18878 45.1796 1.42823 44.4915C1.68367 43.7872 2.12316 43.1469 2.7467 42.5704C3.38623 41.9779 3.88189 41.5615 4.2337 41.3212C4.5855 41.0649 5.20919 40.6724 6.10476 40.1437C6.18471 40.0797 6.24867 40.0316 6.29665 39.9996C6.36062 39.9675 6.4246 39.9355 6.48857 39.9034C7.83195 39.1183 8.69549 38.5496 9.07921 38.1973C9.71871 37.5728 10.0382 36.8766 10.0375 36.1086C10.037 35.4046 9.74855 34.8688 9.17226 34.5013C8.61197 34.1337 7.81982 33.9503 6.79582 33.9512C5.01982 33.9526 3.2923 34.562 1.61328 35.7793L1.61117 33.1393ZM23.3292 31.778L26.1372 31.7757L26.1456 42.3837L28.9536 42.3815L28.9555 44.7575L26.1475 44.7597L26.1502 48.0957L23.5102 48.0978L23.5075 44.7618L14.6515 44.7689L14.6497 42.4409L23.3292 31.778ZM23.5056 42.3858L23.4999 35.2578L17.6976 42.3905L23.5056 42.3858ZM31.0745 41.0358L39.8105 41.0288L39.8123 43.3328L31.0763 43.3398L31.0745 41.0358ZM42.4158 33.1067C44.031 32.0014 45.8385 31.448 47.8385 31.4464C49.5505 31.445 50.9348 31.8439 51.9915 32.6431C53.0481 33.4262 53.577 34.5538 53.5782 36.0258C53.5792 37.2578 53.172 38.3141 52.3567 39.1948C51.5574 40.0594 50.4621 40.9083 49.0707 41.7414C48.9588 41.8055 48.7509 41.9257 48.447 42.1019C48.1592 42.2781 47.9513 42.4063 47.8233 42.4864C47.7114 42.5505 47.5275 42.6626 47.2716 42.8228C47.0157 42.983 46.8238 43.1032 46.6959 43.1833C46.584 43.2634 46.4241 43.3835 46.2162 43.5437C46.0243 43.6878 45.8804 43.816 45.7845 43.928C45.6886 44.0241 45.5767 44.1522 45.4488 44.3123C45.3209 44.4564 45.225 44.5925 45.1611 44.7205C45.1132 44.8486 45.0653 44.9926 45.0175 45.1526C44.9696 45.3127 44.9457 45.4727 44.9458 45.6327L53.7058 45.6017L53.7078 48.0737L41.8758 48.0832L41.8748 46.8352C41.8741 45.9392 41.9935 45.1471 42.2329 44.4589C42.4883 43.7547 42.9278 43.1143 43.5514 42.5378C44.1909 41.9453 44.6866 41.5289 45.0384 41.2886C45.3902 41.0323 46.0139 40.6398 46.9094 40.1111C46.9894 40.0471 47.0533 39.999 47.1013 39.967C47.1653 39.9349 47.2293 39.9029 47.2932 39.8708C48.6366 39.0858 49.5002 38.5171 49.8839 38.1648C50.5234 37.5402 50.8428 36.844 50.8422 36.076C50.8417 35.372 50.5532 34.8362 49.9769 34.4687C49.4166 34.1011 48.6245 33.9178 47.6005 33.9186C45.8245 33.92 44.097 34.5294 42.418 35.7467L42.4158 33.1067ZM57.0778 31.751L67.1338 31.743L67.1358 34.191L59.5998 34.197L59.3629 38.1332C60.1468 37.9406 60.9707 37.8439 61.8347 37.8432C63.5787 37.8418 65.027 38.2647 66.1797 39.1117C67.3324 39.9428 67.9094 41.2544 67.9109 43.0464C67.9122 44.7424 67.2813 46.0549 66.018 46.9839C64.7707 47.9129 63.2031 48.3781 61.3151 48.3796C59.3471 48.3812 57.6028 48.0146 56.0822 47.2798L56.0802 44.7118C57.4568 45.5107 59.0971 45.9094 61.0011 45.9079C62.2491 45.9069 63.2489 45.6581 64.0005 45.1615C64.7681 44.6649 65.1516 43.9526 65.1508 43.0246C65.1493 41.0726 63.6685 40.0978 60.7085 40.1001C59.3325 40.1012 57.9487 40.3423 56.5571 40.8234L57.0778 31.751ZM71.2533 51.6117L69.1653 51.6134L70.5766 45.6602L73.2886 45.6581L71.2533 51.6117ZM81.8377 33.0752C83.4528 31.9699 85.2604 31.4165 87.2604 31.4149C88.9724 31.4135 90.3567 31.8124 91.4133 32.6116C92.47 33.3947 92.9989 34.5223 93 35.9943C93.001 37.2263 92.5939 38.2827 91.7786 39.1633C90.9793 40.0279 89.8839 40.8768 88.4926 41.7099C88.3807 41.774 88.1728 41.8942 87.8689 42.0704C87.581 42.2467 87.3731 42.3748 87.2452 42.4549C87.1332 42.519 86.9493 42.6312 86.6935 42.7914C86.4376 42.9516 86.2457 43.0717 86.1178 43.1518C86.0058 43.2319 85.8459 43.352 85.638 43.5122C85.4462 43.6564 85.3023 43.7845 85.2063 43.8966C85.1104 43.9926 84.9985 44.1207 84.8707 44.2808C84.7428 44.4249 84.6469 44.561 84.583 44.6891C84.5351 44.8171 84.4872 44.9611 84.4393 45.1212C84.3915 45.2812 84.3676 45.4412 84.3677 45.6012L93.1277 45.5702L93.1297 48.0422L81.2977 48.0517L81.2967 46.8037C81.296 45.9077 81.4153 45.1156 81.6548 44.4274C81.9102 43.7232 82.3497 43.0828 82.9732 42.5063C83.6128 41.9138 84.1084 41.4974 84.4602 41.2571C84.812 41.0009 85.4357 40.6084 86.3313 40.0797C86.4113 40.0156 86.4752 39.9675 86.5232 39.9355C86.5872 39.9034 86.6511 39.8714 86.7151 39.8393C88.0585 39.0543 88.922 38.4856 89.3057 38.1333C89.9453 37.5088 90.2647 36.8125 90.2641 36.0445C90.2635 35.3405 89.9751 34.8047 89.3988 34.4372C88.8385 34.0696 88.0464 33.8863 87.0224 33.8871C85.2464 33.8885 83.5188 34.4979 81.8398 35.7152L81.8377 33.0752ZM97.3031 46.0229C96.0699 44.4559 95.4522 42.4084 95.4502 39.8804C95.4482 37.3524 96.0626 35.3119 97.2933 33.7589C98.5241 32.1899 100.347 31.4045 102.763 31.4025C105.179 31.4006 107.004 32.1831 108.237 33.7502C109.471 35.3012 110.088 37.3407 110.09 39.8687C110.092 42.3967 109.478 44.4452 108.247 46.0142C107.016 47.5671 105.193 48.3446 102.777 48.3465C100.361 48.3485 98.5364 47.5739 97.3031 46.0229ZM102.775 45.8505C105.815 45.8481 107.333 43.8549 107.33 39.8709C107.327 35.8869 105.805 33.8961 102.765 33.8985C99.7254 33.901 98.207 35.8942 98.2102 39.8782C98.2134 43.8622 99.735 45.853 102.775 45.8505ZM112.822 33.0505C114.437 31.9452 116.245 31.3918 118.245 31.3902C119.957 31.3888 121.341 31.7877 122.398 32.5869C123.454 33.37 123.983 34.4976 123.984 35.9696C123.985 37.2016 123.578 38.2579 122.763 39.1386C121.964 40.0032 120.868 40.8521 119.477 41.6852C119.365 41.7493 119.157 41.8694 118.853 42.0457C118.565 42.2219 118.358 42.3501 118.23 42.4302C118.118 42.4943 117.934 42.6064 117.678 42.7666C117.422 42.9268 117.23 43.047 117.102 43.1271C116.99 43.2072 116.83 43.3273 116.622 43.4875C116.431 43.6316 116.287 43.7597 116.191 43.8718C116.095 43.9679 115.983 44.096 115.855 44.2561C115.727 44.4002 115.631 44.5363 115.567 44.6643C115.519 44.7923 115.472 44.9364 115.424 45.0964C115.376 45.2565 115.352 45.4165 115.352 45.5765L124.112 45.5455L124.114 48.0175L112.282 48.0269L112.281 46.7789C112.28 45.8829 112.4 45.0908 112.639 44.4026C112.895 43.6984 113.334 43.0581 113.958 42.4816C114.597 41.8891 115.093 41.4727 115.445 41.2324C115.796 40.9761 116.42 40.5836 117.316 40.0549C117.396 39.9908 117.46 39.9428 117.508 39.9108C117.572 39.8787 117.636 39.8467 117.699 39.8146C119.043 39.0295 119.906 38.4608 120.29 38.1085C120.93 37.484 121.249 36.7878 121.248 36.0198C121.248 35.3158 120.959 34.78 120.383 34.4125C119.823 34.0449 119.031 33.8615 118.007 33.8624C116.231 33.8638 114.503 34.4732 112.824 35.6905L112.822 33.0505ZM137.711 35.8386C137.712 36.6866 137.489 37.4308 137.041 38.0712C136.61 38.7115 136.026 39.152 135.29 39.3926C136.17 39.6639 136.907 40.1433 137.499 40.8308C138.092 41.5183 138.389 42.4301 138.39 43.5661C138.391 45.1181 137.8 46.3026 136.616 47.1195C135.433 47.9204 133.945 48.3216 132.153 48.3231C130.057 48.3247 128.169 47.9662 126.488 47.2476L126.486 44.6076C128.055 45.4703 129.871 45.8849 131.935 45.8512C134.495 45.8172 135.775 44.9602 135.773 43.2802C135.772 41.6482 134.619 40.8331 132.315 40.8349L129.723 40.837L129.721 38.365L132.001 38.3872C132.993 38.3864 133.753 38.1938 134.281 37.8094C134.825 37.4089 135.096 36.8647 135.096 36.1767C135.095 35.4407 134.791 34.873 134.182 34.4734C133.59 34.0579 132.742 33.8506 131.638 33.8515C129.942 33.8528 128.318 34.3021 126.767 35.1994L126.765 32.5834C128.284 31.7822 130.028 31.3808 131.996 31.3792C133.708 31.3778 135.084 31.7767 136.125 32.5759C137.181 33.375 137.71 34.4626 137.711 35.8386ZM2.08967 61.3149L7.96967 61.3102C10.8497 61.3079 13.0423 62.0742 14.5475 63.609C16.0527 65.1438 16.8064 67.1752 16.8084 69.7032C16.8104 72.2312 16.06 74.2638 14.5572 75.801C13.0545 77.3382 10.8631 78.1079 7.98308 78.1102L2.10308 78.1149L2.08967 61.3149ZM12.4679 74.0986C13.5071 73.0738 14.0259 71.6094 14.0244 69.7054C14.0229 67.8014 13.5017 66.3458 12.4609 65.3386C11.4361 64.3155 9.93166 63.8047 7.94766 63.8063L4.82766 63.8087L4.83709 75.6167L7.95709 75.6142C9.94109 75.6127 11.4447 75.1075 12.4679 74.0986ZM27.8029 66.5744L30.3709 66.5723L30.3801 78.0923L28.1001 78.0942L28.0989 76.5102C27.0439 77.775 25.7084 78.4081 24.0924 78.4094C22.6044 78.4106 21.436 77.9795 20.5874 77.1162C19.7547 76.2528 19.3378 75.1172 19.3366 73.7092L19.3309 66.5812L21.8989 66.5791L21.9044 73.3711C21.9058 75.2111 22.8026 76.1304 24.5946 76.129C25.8586 76.128 26.9301 75.4871 27.809 74.2064L27.8029 66.5744ZM33.5795 61.2898L36.1475 61.2877L36.1529 68.0557C37.224 66.8549 38.6075 66.2538 40.3035 66.2524C41.9995 66.2511 43.376 66.842 44.4329 68.0251C45.4898 69.1923 46.019 70.6239 46.0203 72.3199C46.0217 74.0159 45.4949 75.4563 44.4398 76.6411C43.3847 77.81 42.0092 78.3951 40.3132 78.3964C38.5052 78.3979 37.0246 77.687 35.8715 76.264L35.8729 78.088L33.5929 78.0898L33.5795 61.2898ZM42.3986 75.0827C43.07 74.3622 43.4052 73.4419 43.4043 72.3219C43.4035 71.2019 43.0667 70.2902 42.3942 69.5867C41.7216 68.8673 40.8653 68.508 39.8253 68.5088C38.9773 68.5095 38.2255 68.7421 37.5699 69.2066C36.9302 69.6711 36.4587 70.2395 36.1552 70.9117L36.1575 73.7197C36.462 74.4075 36.9345 74.9831 37.5748 75.4466C38.2312 75.9101 38.9834 76.1415 39.8314 76.1408C40.8714 76.14 41.7271 75.7873 42.3986 75.0827ZM58.3365 75.406C58.3369 75.966 58.6172 76.2458 59.1772 76.2453C59.3692 76.2452 59.6251 76.197 59.9451 76.1007L59.9465 77.9487C59.4667 78.1411 58.9228 78.2376 58.3148 78.238C57.1628 78.239 56.3944 77.7916 56.0097 76.8959C54.7785 77.8889 53.3309 78.386 51.6669 78.3873C50.5469 78.3882 49.5946 78.085 48.8102 77.4776C48.0257 76.8543 47.633 75.9826 47.6321 74.8626C47.631 73.5186 48.1342 72.5422 49.1417 71.9334C50.1492 71.3086 51.357 70.9956 52.765 70.9945C53.693 70.9937 54.6931 71.1049 55.7652 71.3281L55.7649 70.9201C55.7643 70.1841 55.4999 69.5923 54.9715 69.1447C54.4431 68.6971 53.699 68.4737 52.739 68.4745C51.315 68.4756 49.9312 68.7727 48.5877 69.3658L48.5858 67.0138C50.0894 66.5006 51.5612 66.2434 53.0012 66.2423C54.6812 66.2409 55.9855 66.6559 56.9142 67.4872C57.8588 68.3184 58.3319 69.582 58.3332 71.278L58.3365 75.406ZM53.2704 72.7941C52.4224 72.7947 51.7105 72.9473 51.1348 73.2518C50.559 73.5562 50.2714 74.0365 50.2719 74.6925C50.2724 75.2365 50.4807 75.6603 50.8969 75.964C51.3132 76.2516 51.8253 76.3952 52.4333 76.3947C53.7453 76.3937 54.8569 75.9368 55.7682 75.0241L55.7666 73.0801C54.8385 72.8888 54.0064 72.7935 53.2704 72.7941ZM64.3339 78.0652L61.7659 78.0673L61.7567 66.5473L64.3247 66.5452L64.3339 78.0652ZM64.6098 62.801C64.6101 63.297 64.4585 63.6811 64.1547 63.9534C63.8669 64.2096 63.499 64.3379 63.051 64.3383C62.603 64.3386 62.2269 64.2109 61.9227 63.9552C61.6185 63.6834 61.4661 63.2995 61.4658 62.8035C61.4654 62.3235 61.6171 61.9554 61.9209 61.6992C62.2247 61.4269 62.6005 61.2906 63.0485 61.2903C63.4965 61.2899 63.8647 61.4256 64.1529 61.6974C64.4571 61.9531 64.6094 62.321 64.6098 62.801ZM68.3476 81.614L66.2596 81.6157L67.6708 75.6626L70.3828 75.6604L68.3476 81.614ZM90.8345 61.2441L93.5705 61.2419L93.579 71.8259C93.5799 72.9939 93.3807 74.018 92.9814 74.8984C92.5981 75.7627 92.0627 76.4431 91.3751 76.9396C90.7034 77.4202 89.9517 77.7808 89.1199 78.0214C88.3041 78.2461 87.4082 78.3588 86.4322 78.3596C85.4562 78.3604 84.5521 78.2491 83.7199 78.0258C82.8877 77.7864 82.1274 77.427 81.4391 76.9476C80.7507 76.4521 80.2061 75.7726 79.8054 74.9089C79.4207 74.0292 79.2279 73.0053 79.227 71.8373L79.2185 61.2533L81.9545 61.2512L81.9629 71.6912C81.9651 74.4432 83.4542 75.818 86.4302 75.8156C89.3741 75.8132 90.8451 74.4361 90.8429 71.6841L90.8345 61.2441ZM97.9392 78.0384L95.0352 78.0407L102.126 61.235L105.126 61.2327L112.219 78.027L109.339 78.0293L107.848 74.4065L99.4243 74.4132L97.9392 78.0384ZM103.305 64.8341L100.358 72.0125L106.886 72.0073L103.929 64.8336C103.8 64.4817 103.696 64.1698 103.616 63.8979C103.536 64.1699 103.432 64.482 103.305 64.8341ZM114.379 61.2253L125.947 61.216L125.949 63.712L117.117 63.7191L117.12 68.3031L125.232 68.2966L125.234 70.7926L117.122 70.7991L117.126 75.5271L126.102 75.5199L126.104 78.0159L114.392 78.0253L114.379 61.2253Z" fill="white"/>
</svg>
